<svg xmlns="http://www.w3.org/2000/svg" xmlns:xlink="http://www.w3.org/1999/xlink" viewBox="0 0 700 700"><defs><symbol id="a" overflow="visible"><path d="M19-1a13 13 0 0 1-7 1L4-2c-2-2-3-5-3-8s1-6 3-8 5-3 8-3a14 14 0 0 1 7 2v4l-3-2h-3l-5 2-1 5 1 5 5 2a10 10 0 0 0 6-2z"/></symbol><symbol id="b" overflow="visible"><path d="M14-11a7 7 0 0 0-3-1l-3 1-1 4v7H2v-15h5v2l2-2a6 6 0 0 1 4-1h1z"/></symbol><symbol id="c" overflow="visible"><path d="M18-8v2H6l1 2 3 1h4l3-2v4a21 21 0 0 1-7 1C7 0 5 0 4-2 2-3 1-5 1-8l2-6 7-2 5 2 3 6zm-5-1-1-3H7L6-9z"/></symbol><symbol id="d" overflow="visible"><path d="M9-7 7-6 6-5l1 2h1l3-1 1-2v-1zm8-2v9h-5v-2l-2 2H7L3-1 1-5l2-4 6-1h3l-1-2H5l-2 1v-4a30 30 0 0 1 6-1l6 2 2 5z"/></symbol><symbol id="e" overflow="visible"><path d="M8-20v5h5v3H8v8l2 1h2v3H8L4-1 3-5v-7H0v-3h3v-5z"/></symbol><symbol id="f" overflow="visible"><path d="M13-13v-8h5V0h-5v-2l-2 2H8C6 0 4 0 3-2L1-8l2-5c1-2 3-3 5-3a6 6 0 0 1 5 3zM10-3l2-1 1-4-1-3-2-1-3 1-1 3 1 4 3 1z"/></symbol><symbol id="g" overflow="visible"><path d="m11-3 2-1 1-4-1-3-2-1-3 1-1 3 1 4 2 1zM7-13l2-2 3-1c2 0 4 1 5 3l2 5-2 6c-1 2-3 2-5 2H9L7-2v2H2v-21h5z"/></symbol><symbol id="h" overflow="visible"><path d="M0-15h5L9-5l4-10h5L11 1 9 5 6 6H3V3h1l2-1 1-1z"/></symbol><symbol id="i" overflow="visible"><path d="M15-4H7L5 0H0l8-20h6l8 20h-6zM8-7h6l-3-9z"/></symbol><symbol id="j" overflow="visible"><path d="M2-21h5V0H2z"/></symbol><symbol id="k" overflow="visible"><path d="M12-21v3H8v3h4v3H8V0H3v-12H1v-3h2v-1l1-4 5-1z"/></symbol><symbol id="l" overflow="visible"><path d="m10-12-3 1-1 3 1 4 3 1 2-1 1-4-1-3-2-1zm0-4 6 2 2 6-2 6c-2 2-4 2-6 2-3 0-5 0-7-2L1-8l2-6 7-2z"/></symbol><symbol id="m" overflow="visible"><path d="M18-9v9h-5v-10l-1-1v-1h-1l-3 1-1 3v8H2v-15h5v2l3-2 2-1 4 2 2 5z"/></symbol><symbol id="n" overflow="visible"><path d="M14-15v4a18 18 0 0 0-5-1H6v2h3l5 2 1 3-1 4-6 1a22 22 0 0 1-6-1v-3a14 14 0 0 0 6 1h2l1-1-1-1-2-1H7L3-8c-1 0-2-1-2-3s1-3 2-3l5-2 3 1h3z"/></symbol><symbol id="o" overflow="visible"><path d="M3-20h5v18L6 4 0 6h-2V2h1l3-1 1-3z"/></symbol><symbol id="p" overflow="visible"><path d="M2-6v-9h5v4a301 301 0 0 0 1 7l1 1 3-1 1-4v-7h5V0h-5v-2l-3 2H8L4-1 2-6z"/></symbol><symbol id="q" overflow="visible"><path d="M8-16v12h2l5-2 1-4-1-5-5-1zm-5-4h12a9 9 0 0 1 6 6l1 4-1 4-2 3-4 2-7 1H3z"/></symbol><symbol id="r" overflow="visible"><path d="M2-15h5V0H2zm0-6h5v4H2z"/></symbol><symbol id="s" overflow="visible"><path d="m17-13 2-2 3-1 4 2 1 5v9h-5v-11l-2-1-2 1-1 3v8h-5v-11l-2-1-2 1-1 3v8H2v-15h5v2l2-2 3-1 3 1 2 2z"/></symbol><symbol id="t" overflow="visible"><path d="M18-9v9h-5v-10l-1-1v-1h-1l-3 1-1 3v8H2v-21h5v8l3-2 2-1 4 2 2 5z"/></symbol><symbol id="u" overflow="visible"><path d="M3-20h5l8 14v-14h5V0h-6L8-14V0H3z"/></symbol><symbol id="v" overflow="visible"><path d="M3-20h8l6 1c2 1 2 3 2 5s0 4-2 5l-6 2H8v7H3zm5 3v6h3l2-1 1-2-1-2-2-1z"/></symbol><symbol id="w" overflow="visible"><path d="M2-15h5V0L6 4C5 6 3 6 1 6h-2V3h1l2-1V0zm0-6h5v4H2z"/></symbol><symbol id="x" overflow="visible"><path d="M15-15v4l-2-1h-2l-4 1-1 3 1 4 4 1h2l2-1v4a13 13 0 0 1-5 0C7 0 5 0 4-2 2-3 1-5 1-8l3-6 6-2a13 13 0 0 1 5 1z"/></symbol></defs><path d="M350 417 126 193l49-50 175 175 175-175 49 50z"/><use xlink:href="#a" x="70" y="644"/><use xlink:href="#b" x="90.6" y="644"/><use xlink:href="#c" x="104.4" y="644"/><use xlink:href="#d" x="123.3" y="644"/><use xlink:href="#e" x="142.2" y="644"/><use xlink:href="#c" x="155.6" y="644"/><use xlink:href="#f" x="174.6" y="644"/><use xlink:href="#g" x="204.4" y="644"/><use xlink:href="#h" x="224.5" y="644"/><use xlink:href="#i" x="252.5" y="644"/><use xlink:href="#j" x="274.1" y="644"/><use xlink:href="#k" x="283.7" y="644"/><use xlink:href="#l" x="295.9" y="644"/><use xlink:href="#m" x="315.1" y="644"/><use xlink:href="#n" x="335.1" y="644"/><use xlink:href="#l" x="351.7" y="644"/><use xlink:href="#o" x="380.7" y="644"/><use xlink:href="#p" x="391.1" y="644"/><use xlink:href="#d" x="411.1" y="644"/><use xlink:href="#m" x="430" y="644"/><use xlink:href="#q" x="459.6" y="644"/><use xlink:href="#r" x="482.9" y="644"/><use xlink:href="#j" x="492.5" y="644"/><use xlink:href="#j" x="502.1" y="644"/><use xlink:href="#c" x="511.7" y="644"/><use xlink:href="#b" x="530.7" y="644"/><use xlink:href="#d" x="544.5" y="644"/><use xlink:href="#k" x="70" y="672"/><use xlink:href="#b" x="82.2" y="672"/><use xlink:href="#l" x="96" y="672"/><use xlink:href="#s" x="115.2" y="672"/><use xlink:href="#e" x="154.2" y="672"/><use xlink:href="#t" x="167.5" y="672"/><use xlink:href="#c" x="187.5" y="672"/><use xlink:href="#u" x="216.2" y="672"/><use xlink:href="#l" x="239.6" y="672"/><use xlink:href="#p" x="258.9" y="672"/><use xlink:href="#m" x="278.8" y="672"/><use xlink:href="#v" x="308.5" y="672"/><use xlink:href="#b" x="329" y="672"/><use xlink:href="#l" x="342.8" y="672"/><use xlink:href="#w" x="362.1" y="672"/><use xlink:href="#c" x="371.7" y="672"/><use xlink:href="#x" x="390.6" y="672"/><use xlink:href="#e" x="407.2" y="672"/></svg>