<svg xmlns="http://www.w3.org/2000/svg" xmlns:xlink="http://www.w3.org/1999/xlink" viewBox="0 0 700 700"><defs><symbol id="a" overflow="visible"><path d="M29.31-1.75A21.13 21.13 0 0 1 19.47.62C14.16.62 9.94-.86 6.83-3.83c-3.1-2.97-4.66-7-4.66-12.1s1.55-9.12 4.66-12.09c3.11-2.96 7.33-4.45 12.64-4.45a20.76 20.76 0 0 1 9.84 2.37v6.6a18.05 18.05 0 0 0-4.51-2.28 14.83 14.83 0 0 0-4.68-.74c-2.93 0-5.24.95-6.92 2.83-1.68 1.88-2.51 4.47-2.51 7.77s.83 5.88 2.51 7.76c1.68 1.88 3.99 2.82 6.92 2.82 1.64 0 3.2-.24 4.68-.72a18.27 18.27 0 0 0 4.51-2.3z"/></symbol><symbol id="b" overflow="visible"><path d="M21.45-17.4a10.09 10.09 0 0 0-4-.93c-1.97 0-3.48.63-4.54 1.9-1.06 1.25-1.58 3.06-1.58 5.41V0H3.67v-23.92h7.66V-20a9.7 9.7 0 0 1 3.37-3.42 9.25 9.25 0 0 1 4.6-1.08 13.09 13.09 0 0 1 2.12.17z"/></symbol><symbol id="c" overflow="visible"><path d="M27.56-12.03v2.19H9.67c.19 1.79.83 3.13 1.94 4.03 1.11.9 2.67 1.34 4.67 1.34 1.6 0 3.25-.23 4.94-.7 1.69-.48 3.42-1.2 5.2-2.17v5.89c-1.8.68-3.6 1.2-5.42 1.54-1.81.36-3.62.54-5.42.54-4.34 0-7.7-1.1-10.11-3.3-2.4-2.2-3.6-5.3-3.6-9.27 0-3.9 1.18-6.97 3.54-9.2 2.36-2.24 5.6-3.36 9.73-3.36 3.76 0 6.77 1.14 9.03 3.4 2.26 2.27 3.4 5.29 3.4 9.07zm-7.86-2.53c0-1.46-.43-2.63-1.28-3.52a4.35 4.35 0 0 0-3.31-1.34c-1.5 0-2.7.42-3.63 1.25a5.82 5.82 0 0 0-1.71 3.6z"/></symbol><symbol id="d" overflow="visible"><path d="M14.4-10.77c-1.6 0-2.8.28-3.6.82a2.7 2.7 0 0 0-1.2 2.39c0 .97.31 1.73.96 2.28.65.54 1.55.81 2.7.81a4.8 4.8 0 0 0 3.63-1.55 5.38 5.38 0 0 0 1.49-3.87v-.88zm11.68-2.89V0h-7.7v-3.55c-1.04 1.45-2.2 2.51-3.47 3.17s-2.84 1-4.67 1c-2.49 0-4.5-.72-6.05-2.17a7.35 7.35 0 0 1-2.31-5.62c0-2.82.96-4.87 2.89-6.17 1.93-1.32 4.97-1.97 9.09-1.97h4.52v-.61c0-1.21-.48-2.1-1.44-2.66-.95-.56-2.44-.84-4.47-.84-1.64 0-3.16.17-4.56.5-1.4.32-2.72.81-3.94 1.47v-5.83a41.15 41.15 0 0 1 9.89-1.22c4.32 0 7.44.85 9.34 2.56 1.92 1.7 2.88 4.46 2.88 8.28z"/></symbol><symbol id="e" overflow="visible"><path d="M12.03-30.72v6.8h7.88v5.47h-7.88v10.14c0 1.11.22 1.87.66 2.26.43.39 1.31.58 2.62.58h3.94V0h-6.56C9.66 0 7.52-.63 6.27-1.89 5-3.15 4.37-5.29 4.37-8.31v-10.14H.57v-5.47h3.8v-6.8z"/></symbol><symbol id="f" overflow="visible"><path d="M19.95-20.42v-12.81h7.69V0h-7.69v-3.45a10.4 10.4 0 0 1-3.48 3.1 9.49 9.49 0 0 1-4.4.98A8.93 8.93 0 0 1 4.8-2.9C2.9-5.23 1.97-8.25 1.97-11.94s.94-6.7 2.83-9.04a8.93 8.93 0 0 1 7.26-3.52c1.66 0 3.12.34 4.4 1a10.4 10.4 0 0 1 3.5 3.08zM14.91-4.94c1.64 0 2.9-.6 3.75-1.8.86-1.19 1.3-2.92 1.3-5.2 0-2.28-.44-4.02-1.3-5.22a4.32 4.32 0 0 0-3.75-1.8c-1.63 0-2.88.6-3.74 1.8-.85 1.2-1.28 2.94-1.28 5.22s.43 4.01 1.28 5.2c.86 1.2 2.11 1.8 3.74 1.8z"/></symbol><symbol id="g" overflow="visible"><path d="M16.4-4.94c1.64 0 2.89-.6 3.76-1.8.86-1.19 1.3-2.92 1.3-5.2 0-2.28-.44-4.02-1.3-5.22a4.35 4.35 0 0 0-3.75-1.8c-1.64 0-2.9.61-3.77 1.82-.87 1.2-1.31 2.93-1.31 5.2 0 2.26.44 4 1.31 5.2a4.38 4.38 0 0 0 3.77 1.8zm-5.07-15.48a10.36 10.36 0 0 1 3.5-3.08c1.28-.66 2.75-1 4.42-1a8.94 8.94 0 0 1 7.27 3.52c1.89 2.34 2.84 5.36 2.84 9.04s-.95 6.7-2.84 9.05A8.94 8.94 0 0 1 19.25.63c-1.67 0-3.14-.34-4.42-1s-2.45-1.7-3.5-3.08V0H3.67v-33.23h7.66z"/></symbol><symbol id="h" overflow="visible"><path d="M.53-23.92H8.2L14.6-7.7l5.47-16.23h7.65L17.67 2.27c-1 2.66-2.2 4.52-3.54 5.57-1.35 1.07-3.13 1.6-5.33 1.6H4.38V4.42h2.39c1.3 0 2.24-.2 2.82-.62.6-.4 1.06-1.15 1.4-2.22l.2-.66z"/></symbol><symbol id="i" overflow="visible"><path d="M16.8-19.55c1.29 0 2.27-.28 2.93-.84.68-.57 1.02-1.41 1.02-2.53 0-1.1-.34-1.93-1.02-2.5-.66-.58-1.64-.88-2.93-.88h-4.57v6.75zm.26 13.96c1.66 0 2.9-.35 3.74-1.05.83-.7 1.25-1.75 1.25-3.17 0-1.38-.42-2.4-1.25-3.1-.83-.7-2.07-1.04-3.74-1.04h-4.83v8.36zm7.66-11.47a7.32 7.32 0 0 1 4.1 2.84 8.6 8.6 0 0 1 1.45 5.08c0 3.07-1.05 5.37-3.13 6.87C25.07-.75 21.91 0 17.67 0H4.02v-31.9h12.34c4.43 0 7.63.68 9.62 2.02 2 1.34 2.99 3.48 2.99 6.43a7 7 0 0 1-1.1 3.96 6.49 6.49 0 0 1-3.15 2.43z"/></symbol><symbol id="j" overflow="visible"><path d="M23-23.17v6.23a11.7 11.7 0 0 0-3.13-1.58 10.31 10.31 0 0 0-3.25-.51c-2.13 0-3.8.62-5 1.87-1.18 1.25-1.78 2.98-1.78 5.22 0 2.23.6 3.97 1.78 5.22 1.2 1.25 2.87 1.88 5 1.88A10.2 10.2 0 0 0 23-6.97V-.7A21.17 21.17 0 0 1 15.66.62c-4.32 0-7.7-1.1-10.13-3.32S1.88-8 1.88-11.94c0-3.94 1.21-7.02 3.65-9.23 2.44-2.22 5.81-3.33 10.13-3.33 1.25 0 2.48.1 3.7.33s2.43.55 3.64 1z"/></symbol><symbol id="k" overflow="visible"><path d="M3.67-23.92h7.66V0H3.67zm0-9.31h7.66V-27H3.67z"/></symbol><symbol id="l" overflow="visible"><path d="M22.36-23.17v5.8a29.5 29.5 0 0 0-4.74-1.54 19.63 19.63 0 0 0-4.3-.51 7.4 7.4 0 0 0-3.26.54c-.7.37-1.04.93-1.04 1.68 0 .61.26 1.09.8 1.42.52.32 1.48.56 2.87.72l1.34.19c3.91.5 6.55 1.32 7.9 2.46 1.36 1.14 2.04 2.93 2.04 5.36 0 2.56-.95 4.47-2.83 5.75C19.27-.02 16.46.63 12.74.63 11.13.63 9.51.5 7.82.25S4.4-.37 2.63-.87V-6.7a21.83 21.83 0 0 0 9.58 2.22c1.48 0 2.6-.2 3.35-.6a2 2 0 0 0 1.14-1.85c0-.69-.26-1.2-.78-1.53-.52-.34-1.56-.6-3.1-.78l-1.35-.18c-3.4-.42-5.8-1.2-7.16-2.36-1.37-1.15-2.04-2.9-2.04-5.26 0-2.53.86-4.4 2.6-5.63 1.74-1.22 4.4-1.84 7.99-1.84 1.4 0 2.88.1 4.44.33 1.55.2 3.23.54 5.06 1z"/></symbol></defs><path d="m581.66 226.96 15.93-15.93a26.23 26.23 0 0 0 0-37.04L561 137.4a26.22 26.22 0 0 0-37.04 0l-18.8 18.8c-11.99-3.58-25.75-6.61-41.43-9.03V52.5c0-9.33-3.65-18.12-10.27-24.73a34.73 34.73 0 0 0-24.73-10.27c-19.3 0-35 15.7-35 35v39.87c-5.17-3.01-11.09-4.87-17.5-4.87A34.78 34.78 0 0 0 350 99.6a34.78 34.78 0 0 0-26.25-12.1c-6.4 0-12.32 1.86-17.5 4.87V35c0-9.33-3.64-18.12-10.26-24.73A34.75 34.75 0 0 0 271.24 0c-19.3 0-35 15.7-35 35v112.18c-15.68 2.42-29.45 5.46-41.43 9.03l-18.8-18.8a26.22 26.22 0 0 0-37.04 0L102.4 174a26.23 26.23 0 0 0 0 37.05l15.93 15.93C82.16 308.45 70 449.67 70 481.27c0 62.28 51.5 78.74 78.75 78.74 3.68 0 6.97-2.3 8.22-5.77.1-.3 9.61-26.48 21.96-56.67l13.56 13.56v40.13a8.76 8.76 0 0 0 8.75 8.75H455a8.76 8.76 0 0 0 8.75-8.75V402.12a78.9 78.9 0 0 1 12.25 7.39c14.6 10.96 48.86 94.6 67.02 144.73a8.77 8.77 0 0 0 8.23 5.76c27.24 0 78.75-16.45 78.75-78.75 0-31.6-12.17-172.84-48.33-254.29zm-45.32-77.18a8.7 8.7 0 0 1 12.3 0l36.58 36.57a8.7 8.7 0 0 1 0 12.3l-11.74 11.74c-7.8-14.29-16.25-25.56-25.28-33.29-6.34-5.43-14.68-10.25-24.71-14.47zm-212.6 77.72c10.5 0 19.83-4.74 26.25-12.1a34.78 34.78 0 0 0 26.25 12.1c19.3 0 35-15.7 35-35v-33.2c23.95 1.54 45.07 4.02 63.07 7.45L415.61 245H284.38l-58.7-78.25c18-3.42 39.12-5.9 63.07-7.45v33.2c0 19.3 15.7 35 35 35zm87.5-175c0-9.65 7.85-17.5 17.5-17.5 4.67 0 9.06 1.82 12.37 5.14a17.4 17.4 0 0 1 5.13 12.36v92.35a669.54 669.54 0 0 0-35-3.09zm-35 52.5c9.66 0 17.5 7.85 17.5 17.5v70a17.51 17.51 0 0 1-35 0v-70c0-9.65 7.85-17.5 17.5-17.5zm-52.5 0c9.66 0 17.5 7.85 17.5 17.5v70a17.51 17.51 0 0 1-35 0v-70c0-9.65 7.85-17.5 17.5-17.5zm-70-70c0-9.65 7.85-17.5 17.5-17.5 4.67 0 9.06 1.82 12.37 5.14A17.4 17.4 0 0 1 288.74 35v106.76a669.6 669.6 0 0 0-35 3.1zM114.76 186.35l36.58-36.57a8.7 8.7 0 0 1 12.3 0l12.86 12.86c-10.03 4.22-18.37 9.04-24.7 14.47-9.05 7.74-17.5 19.01-25.29 33.29l-11.75-11.75a8.7 8.7 0 0 1 0-12.3zM210 542.5v-35c0-2.32-.92-4.55-2.56-6.18l-36.49-36.5c-4.94-4.95-7.67-11.54-7.67-18.57s2.73-13.63 7.67-18.58l64.8-64.8a51.85 51.85 0 0 1 9.4 24.3 52.5 52.5 0 0 1-15.09 44.14l-8.75 8.75a8.75 8.75 0 0 0 6.2 14.94c19.3 0 35 15.7 35 35v8.75H280V490a52.6 52.6 0 0 0-34.68-49.38 69.74 69.74 0 0 0 17.6-42.76A34.56 34.56 0 0 0 280 402.5c12.49 0 23.4-6.62 29.58-16.49 15.26-.96 29.67-1 40.42-1s25.17.04 40.42 1a34.91 34.91 0 0 0 29.58 16.5c8.54 0 16.27-3.2 22.36-8.3 1.32.36 2.61.79 3.9 1.2v147.1zm52.5-175c0-9.65 7.85-17.5 17.5-17.5s17.5 7.85 17.5 17.5S289.64 385 280 385s-17.5-7.84-17.5-17.5zm140 0c0-9.65 7.85-17.5 17.5-17.5s17.5 7.85 17.5 17.5S429.64 385 420 385s-17.5-7.84-17.5-17.5zm154.72 174.58c-11.8-32.06-49.32-130.52-70.73-146.59-8-5.97-17.6-10.95-28.36-14.72-1.67-.64-3.45-1.21-5.22-1.79a34.53 34.53 0 0 0 2.1-11.48c0-19.3-15.7-35-35-35s-35 15.7-35 35c0 .23.05.44.06.67-13.31-.64-25.58-.67-35.07-.67s-21.75.03-35.07.67c.01-.23.07-.44.07-.67 0-19.3-15.7-35-35-35-13.52 0-25.15 7.8-30.98 19.07a71.58 71.58 0 0 0-6.58-7.75 8.74 8.74 0 0 0-12.37 0l-71.49 71.48a43.81 43.81 0 0 0 0 61.9l6.97 6.97a1704.35 1704.35 0 0 0-22.74 57.91c-15.49-1.8-55.3-11.25-55.3-60.83 0-31.5 12.3-174.68 49.21-252.47 8.2-17.45 17.1-30.36 26.47-38.38 7.15-6.13 17.86-11.5 31.86-16 3.72-1.22 7.74-2.36 11.91-3.45l66.04 88.06a8.76 8.76 0 0 0 7 3.5h140c2.76 0 5.35-1.3 7-3.5l66.05-88.06c4.18 1.1 8.23 2.23 11.96 3.46 13.95 4.48 24.65 9.85 31.8 16 9.37 8.01 18.28 20.92 26.49 38.4 36.9 77.77 49.2 220.95 49.2 252.45 0 49.57-39.8 59.03-55.28 60.83z"/><path d="M253.75 253.75h-17.5v-17.5a8.76 8.76 0 0 0-8.75-8.75h-35a8.76 8.76 0 0 0-8.75 8.75v17.5h-17.5a8.76 8.76 0 0 0-8.75 8.75v35a8.76 8.76 0 0 0 8.75 8.75h17.5v17.5a8.76 8.76 0 0 0 8.75 8.75h35a8.76 8.76 0 0 0 8.75-8.75v-17.5h17.5a8.76 8.76 0 0 0 8.75-8.75v-35a8.76 8.76 0 0 0-8.75-8.75zm-52.5-8.75h17.5v13.88l-8.75 8.75-8.75-8.75zM175 271.25h13.88l8.75 8.75-8.75 8.75H175zM218.75 315h-17.5v-13.88l8.75-8.75 8.75 8.75zM245 288.75h-13.88l-8.75-8.75 8.75-8.75H245zM481.25 280c0-14.47-11.78-26.25-26.25-26.25s-26.25 11.78-26.25 26.25 11.78 26.25 26.25 26.25 26.25-11.78 26.25-26.25zM455 288.75c-4.82 0-8.75-3.93-8.75-8.75s3.93-8.75 8.75-8.75 8.75 3.93 8.75 8.75-3.93 8.75-8.75 8.75zM498.75 262.5c14.47 0 26.25-11.78 26.25-26.25S513.22 210 498.75 210s-26.25 11.78-26.25 26.25 11.78 26.25 26.25 26.25zm0-35c4.82 0 8.75 3.93 8.75 8.75s-3.93 8.75-8.75 8.75-8.75-3.93-8.75-8.75 3.93-8.75 8.75-8.75zM498.75 297.5c-14.47 0-26.25 11.78-26.25 26.25S484.28 350 498.75 350 525 338.22 525 323.75s-11.78-26.25-26.25-26.25zm0 35c-4.82 0-8.75-3.93-8.75-8.75s3.93-8.75 8.75-8.75 8.75 3.93 8.75 8.75-3.93 8.75-8.75 8.75zM542.5 253.75c-14.47 0-26.25 11.78-26.25 26.25s11.78 26.25 26.25 26.25 26.25-11.78 26.25-26.25-11.78-26.25-26.25-26.25zm0 35c-4.82 0-8.75-3.93-8.75-8.75s3.93-8.75 8.75-8.75 8.75 3.93 8.75 8.75-3.93 8.75-8.75 8.75zM297.5 297.5h35V315h-35zM367.5 297.5h35V315h-35z"/><use xlink:href="#a" x="70" y="691.25"/><use xlink:href="#b" x="102.11" y="691.25"/><use xlink:href="#c" x="123.68" y="691.25"/><use xlink:href="#d" x="153.36" y="691.25"/><use xlink:href="#e" x="182.88" y="691.25"/><use xlink:href="#c" x="203.79" y="691.25"/><use xlink:href="#f" x="233.46" y="691.25"/><use xlink:href="#g" x="280.01" y="691.25"/><use xlink:href="#h" x="311.33" y="691.25"/><use xlink:href="#i" x="355.08" y="691.25"/><use xlink:href="#c" x="388.43" y="691.25"/><use xlink:href="#j" x="418.1" y="691.25"/><use xlink:href="#b" x="444.03" y="691.25"/><use xlink:href="#k" x="465.61" y="691.25"/><use xlink:href="#l" x="480.61" y="691.25"/></svg>