<svg xmlns="http://www.w3.org/2000/svg" xmlns:xlink="http://www.w3.org/1999/xlink" viewBox="0 0 700 700"><defs><symbol id="a" overflow="visible"><path d="M18.8-1.1A13.3 13.3 0 0 1 12.5.4C9 .4 6.4-.6 4.4-2.5s-3-4.4-3-7.7c0-3.2 1-5.8 3-7.7 2-2 4.7-2.9 8-2.9a13.6 13.6 0 0 1 6.4 1.5v4.3c-1-.7-2-1.2-3-1.5-.9-.3-1.9-.5-3-.5-1.8 0-3.3.6-4.3 1.8a7.2 7.2 0 0 0-1.7 5c0 2.1.6 3.8 1.7 5 1 1.2 2.5 1.8 4.4 1.8a9.8 9.8 0 0 0 5.9-2z"/></symbol><symbol id="b" overflow="visible"><path d="M13.7-11.1a6.8 6.8 0 0 0-2.5-.6c-1.3 0-2.3.4-3 1.2-.6.8-1 2-1 3.4V0H2.4v-15.3h4.8v2.5c.7-1 1.4-1.7 2.2-2.2a5.8 5.8 0 0 1 3.5-.7l.8.1z"/></symbol><symbol id="c" overflow="visible"><path d="M17.6-7.7v1.4H6.2c.1 1.2.5 2 1.2 2.6.7.6 1.7.8 3 .8 1 0 2.1-.1 3.2-.4 1-.3 2.2-.8 3.3-1.4v3.8a20.6 20.6 0 0 1-7 1.3C7.3.4 5-.3 3.6-1.7a7.6 7.6 0 0 1-2.3-6c0-2.4.8-4.4 2.3-5.8a8.6 8.6 0 0 1 6.2-2.2c2.4 0 4.3.7 5.8 2.2a7.9 7.9 0 0 1 2.1 5.8zm-5-1.6c0-1-.3-1.7-.8-2.3-.5-.5-1.3-.8-2.1-.8-1 0-1.7.2-2.3.8s-1 1.3-1.1 2.3z"/></symbol><symbol id="d" overflow="visible"><path d="M9.2-6.9c-1 0-1.8.2-2.3.5-.5.4-.8.9-.8 1.6 0 .6.2 1 .7 1.4.4.4 1 .5 1.7.5a3 3 0 0 0 2.3-1c.6-.6 1-1.4 1-2.4V-7zm7.5-1.8V0h-5v-2.3c-.6 1-1.3 1.6-2.2 2-.8.5-1.8.7-3 .7C5 .4 3.7-.1 2.7-1 1.7-2 1.2-3 1.2-4.6c0-1.8.6-3.1 1.8-4C4.3-9.3 6.2-9.7 9-9.7h2.9v-.4c0-.8-.3-1.3-1-1.7-.6-.3-1.5-.5-2.8-.5-1 0-2 0-3 .3-.9.2-1.7.5-2.5 1V-15a29.8 29.8 0 0 1 6.4-.8c2.7 0 4.7.6 6 1.7 1.2 1 1.8 2.8 1.8 5.3z"/></symbol><symbol id="e" overflow="visible"><path d="M7.7-19.7v4.4h5v3.5h-5v6.5c0 .7.1 1.2.4 1.4s.9.4 1.7.4h2.5V0H8.1C6.1 0 4.8-.4 4-1.2 3.2-2 2.8-3.4 2.8-5.3v-6.5H.4v-3.5h2.4v-4.4z"/></symbol><symbol id="f" overflow="visible"><path d="M12.8-13v-8.3h4.9V0h-5v-2.2c-.6.9-1.3 1.6-2.2 2S8.8.4 7.7.4C5.8.4 4.3-.4 3.1-2a9 9 0 0 1-1.8-5.7A9 9 0 0 1 3-13.4a5.7 5.7 0 0 1 4.6-2.3 6 6 0 0 1 5 2.6zM9.5-3.3c1 0 1.9-.3 2.4-1.1.6-.8.9-1.9.9-3.3 0-1.5-.3-2.6-.9-3.4A2.8 2.8 0 0 0 9.5-12c-1 0-1.8.4-2.3 1.1-.6.8-.9 1.9-.9 3.4 0 1.4.3 2.5.9 3.3.5.8 1.3 1.1 2.3 1.1z"/></symbol><symbol id="g" overflow="visible"><path d="M10.5-3.2c1 0 1.9-.3 2.4-1.1.6-.8.8-1.9.8-3.3 0-1.5-.2-2.6-.8-3.4a2.8 2.8 0 0 0-2.4-1.1c-1 0-1.9.4-2.4 1.1-.6.8-.9 2-.9 3.4s.3 2.5.9 3.3c.5.8 1.3 1.1 2.4 1.1zM7.2-13a7 7 0 0 1 2.3-2 6 6 0 0 1 2.8-.6c2 0 3.5.8 4.7 2.3a9 9 0 0 1 1.8 5.8A9 9 0 0 1 17-2 5.7 5.7 0 0 1 12.3.4c-1 0-2-.2-2.8-.6-.8-.5-1.6-1.1-2.3-2V0H2.4v-21.3h4.8z"/></symbol><symbol id="h" overflow="visible"><path d="M.3-15.3h5L9.2-5 13-15.3h4.8L11.3 1.5A8.2 8.2 0 0 1 9 5c-.8.7-2 1-3.4 1H2.8V2.8h1.5c.9 0 1.5-.1 1.8-.4.4-.2.7-.7 1-1.4V.6z"/></symbol><symbol id="i" overflow="visible"><path d="M15-3.7H6.7L5.4 0H.1l7.6-20.4H14L21.5 0h-5.3zM8-7.5h5.6l-2.8-8.1z"/></symbol><symbol id="j" overflow="visible"><path d="M17.8-9.3V0h-5V-9.9c0-.5-.2-.8-.4-1a2 2 0 0 0-.8-.8c-.3-.2-.7-.3-1-.3-1 0-1.9.4-2.5 1.2-.6.8-.9 1.9-.9 3.3V0H2.4v-15.3h4.8v2.2c.8-.9 1.6-1.5 2.4-2a6 6 0 0 1 2.7-.6c1.8 0 3.2.6 4 1.7 1 1 1.4 2.6 1.4 4.7z"/></symbol><symbol id="k" overflow="visible"><path d="M2.6-20.4h8.7a9 9 0 0 1 6 1.7 6 6 0 0 1 2 5 6 6 0 0 1-2 4.9 9 9 0 0 1-6 1.7H7.8V0H2.6zm5.2 3.8v5.7h3c1 0 1.8-.2 2.3-.7.6-.5.9-1.2.9-2.1 0-1-.3-1.7-.9-2.2-.5-.4-1.3-.7-2.3-.7z"/></symbol><symbol id="l" overflow="visible"><path d="M9.6-12.2c-1 0-1.9.4-2.4 1.2-.6.8-.9 1.9-.9 3.4s.3 2.6.9 3.3C7.7-3.5 8.6-3 9.6-3c1.1 0 2-.4 2.5-1.2.5-.7.8-1.9.8-3.3s-.3-2.6-.8-3.4a2.8 2.8 0 0 0-2.5-1.2zm0-3.5c2.7 0 4.7.7 6.2 2.2A7.8 7.8 0 0 1 18-7.6c0 2.5-.7 4.4-2.2 5.9a8.6 8.6 0 0 1-6.2 2C7 .4 5-.2 3.4-1.6a7.8 7.8 0 0 1-2.2-6c0-2.5.7-4.4 2.2-5.8a8.6 8.6 0 0 1 6.2-2.2z"/></symbol><symbol id="m" overflow="visible"><path d="M12.4-21.3v3.2H9.7c-.7 0-1.2.2-1.4.4-.3.3-.4.7-.4 1.3v1H12v3.6H8V0h-5v-11.8H.6v-3.5H3v-1c0-1.7.4-3 1.4-3.8.9-.8 2.3-1.2 4.3-1.2z"/></symbol><symbol id="n" overflow="visible"><path d="M16.5-12.8c.7-1 1.4-1.6 2.3-2.1.8-.5 1.7-.8 2.8-.8 1.7 0 3 .6 4 1.7.9 1 1.4 2.6 1.4 4.7V0h-5v-8.9c0-1-.1-1.9-.4-2.4-.3-.4-.8-.7-1.6-.7-.9 0-1.6.4-2.1 1.2a6 6 0 0 0-.8 3.3V0h-5v-8c0-1.7 0-2.8-.3-3.3-.3-.4-.9-.7-1.6-.7-1 0-1.7.4-2.2 1.2-.5.7-.7 1.8-.7 3.3V0h-5v-15.3h5v2.2c.6-.8 1.2-1.5 2-2 .8-.4 1.7-.6 2.6-.6 1 0 2 .3 2.8.8.8.5 1.4 1.2 1.8 2.1z"/></symbol><symbol id="o" overflow="visible"><path d="M17.8-9.3V0h-5V-9.9c0-.5-.2-.8-.4-1a2 2 0 0 0-.8-.8c-.3-.2-.7-.3-1-.3-1 0-1.9.4-2.5 1.2-.6.8-.9 1.9-.9 3.3V0H2.4v-21.3h4.8v8.2c.8-.9 1.6-1.5 2.4-2a6 6 0 0 1 2.7-.6c1.8 0 3.2.6 4 1.7 1 1 1.4 2.6 1.4 4.7z"/></symbol><symbol id="p" overflow="visible"><path d="M2.6-20.4h5.9l7.4 14v-14h5V0h-6L7.7-14V0h-5z"/></symbol><symbol id="q" overflow="visible"><path d="M2.2-6v-9.3h5v1.5L7-10.7a300.6 300.6 0 0 0 0 5.2l.4 1.2c.2.3.5.6.8.7.3.2.7.3 1.1.3 1 0 1.8-.4 2.4-1.2.6-.8.9-1.9.9-3.3v-7.5h4.9V0h-5v-2.2c-.7.9-1.4 1.5-2.3 2a6 6 0 0 1-2.7.6c-1.8 0-3.1-.5-4-1.6C2.6-2.3 2.2-4 2.2-6z"/></symbol><symbol id="r" overflow="visible"><path d="M2.4-15.3h4.8v15c0 2-.4 3.6-1.4 4.7C4.8 5.5 3.4 6 1.5 6H-1V2.8h.8c1 0 1.6-.2 2-.6.3-.4.5-1.2.5-2.5zm0-6h4.8v4H2.5z"/></symbol><symbol id="s" overflow="visible"><path d="M14.7-14.8v4c-.6-.5-1.3-.8-2-1-.6-.3-1.3-.4-2-.4-1.4 0-2.5.4-3.3 1.2-.7.8-1.1 2-1.1 3.4s.4 2.5 1.1 3.3c.8.8 1.9 1.2 3.2 1.2.8 0 1.5-.1 2.2-.3l2-1v4a13.2 13.2 0 0 1-4.8.8C7.3.4 5-.3 3.5-1.7a7.6 7.6 0 0 1-2.3-6c0-2.5.8-4.4 2.3-5.9a9.3 9.3 0 0 1 6.5-2 13 13 0 0 1 4.7.8z"/></symbol></defs><path d="M350 84a196 196 0 1 0 0 392 196 196 0 0 0 0-392zm0 23.7a172 172 0 0 1 141.3 270.6c0-.7-.7-1.3-1-2a82.6 82.6 0 0 0-4.6-9.8l-1.6-2.9a85.5 85.5 0 0 0-7.7-10.8l-1.5-1.6a80.2 80.2 0 0 0-8.1-8l-2.8-2.5c-3.5-3-7.3-5.7-11.2-8.1-1-.6-2-1-3.2-1.4h-3.4l-2.5.5-1.3.3c-1.2.5-2.4 1.1-3.4 2a137 137 0 0 1-177.6 0 11.9 11.9 0 0 0-13.9-1c-4 2.4-7.6 5-11.2 8l-2.7 2.5a86.7 86.7 0 0 0-8.2 8l-1.5 1.6c-2.8 3.4-5.4 7-7.6 10.9l-1.7 2.9a82.6 82.6 0 0 0-4.6 9.8l-1 2a172 172 0 0 1 141-271zm-122.6 293 1.1-5.7 1.5-5.6c1-2.6 2-5.1 3.3-7.6a50.8 50.8 0 0 1 7.3-12c.9-1.1 1.6-2.3 2.5-3.3 3-3.4 6.2-6.4 9.8-9.2a160.5 160.5 0 0 0 194.2 0c3.6 2.8 6.8 5.8 9.8 9.2.9 1 1.6 2.2 2.5 3.3a58.1 58.1 0 0 1 10.6 19.6c.6 1.8 1 3.8 1.5 5.6l1.1 5.6a171.5 171.5 0 0 1-245.2 0z"/><path d="M350 339a110 110 0 1 0 .1-220 110 110 0 0 0-.1 220zm0-196a86.2 86.2 0 1 1 0 172.8 86.2 86.2 0 0 1 0-173z"/><use xlink:href="#a" x="70" y="644"/><use xlink:href="#b" x="90.6" y="644"/><use xlink:href="#c" x="104.4" y="644"/><use xlink:href="#d" x="123.3" y="644"/><use xlink:href="#e" x="142.2" y="644"/><use xlink:href="#c" x="155.6" y="644"/><use xlink:href="#f" x="174.6" y="644"/><use xlink:href="#g" x="204.4" y="644"/><use xlink:href="#h" x="224.5" y="644"/><use xlink:href="#i" x="252.5" y="644"/><use xlink:href="#j" x="274.1" y="644"/><use xlink:href="#f" x="294.1" y="644"/><use xlink:href="#b" x="314.1" y="644"/><use xlink:href="#c" x="327.9" y="644"/><use xlink:href="#d" x="346.9" y="644"/><use xlink:href="#k" x="375.5" y="644"/><use xlink:href="#c" x="396.1" y="644"/><use xlink:href="#b" x="415.1" y="644"/><use xlink:href="#d" x="428.9" y="644"/><use xlink:href="#e" x="447.8" y="644"/><use xlink:href="#l" x="461.1" y="644"/><use xlink:href="#m" x="70" y="672"/><use xlink:href="#b" x="82.2" y="672"/><use xlink:href="#l" x="96" y="672"/><use xlink:href="#n" x="115.2" y="672"/><use xlink:href="#e" x="154.2" y="672"/><use xlink:href="#o" x="167.5" y="672"/><use xlink:href="#c" x="187.5" y="672"/><use xlink:href="#p" x="216.2" y="672"/><use xlink:href="#l" x="239.6" y="672"/><use xlink:href="#q" x="258.9" y="672"/><use xlink:href="#j" x="278.8" y="672"/><use xlink:href="#k" x="308.5" y="672"/><use xlink:href="#b" x="329" y="672"/><use xlink:href="#l" x="342.8" y="672"/><use xlink:href="#r" x="362.1" y="672"/><use xlink:href="#c" x="371.7" y="672"/><use xlink:href="#s" x="390.6" y="672"/><use xlink:href="#e" x="407.2" y="672"/></svg>